ply
format ascii 1.0
comment PCL generated
element vertex 600
property float x
property float y
property float z
property uchar red
property uchar green
property uchar blue
element camera 1
property float view_px
property float view_py
property float view_pz
property float x_axisx
property float x_axisy
property float x_axisz
property float y_axisx
property float y_axisy
property float y_axisz
property float z_axisx
property float z_axisy
property float z_axisz
property float focal
property float scalex
property float scaley
property float centerx
property float centery
property int viewportx
property int viewporty
property float k1
property float k2
end_header
0 0 0 255 255 255
0 0 0.5 255 255 255
0 0.050000001 0 255 255 255
0 0.050000001 0.5 255 255 255
0 0.1 0 255 255 255
0 0.1 0.5 255 255 255
0 0.15000001 0 255 255 255
0 0.15000001 0.5 255 255 255
0 0.2 0 255 255 255
0 0.2 0.5 255 255 255
0 0.25 0 255 255 255
0 0.25 0.5 255 255 255
0 0.30000001 0 255 255 255
0 0.30000001 0.5 255 255 255
0 0.35000002 0 255 255 255
0 0.35000002 0.5 255 255 255
0 0.40000004 0 255 255 255
0 0.40000004 0.5 255 255 255
0 0.45000005 0 255 255 255
0 0.45000005 0.5 255 255 255
0.050000001 0 0 255 255 255
0.050000001 0 0.5 255 255 255
0.050000001 0.050000001 0 255 255 255
0.050000001 0.050000001 0.5 255 255 255
0.050000001 0.1 0 255 255 255
0.050000001 0.1 0.5 255 255 255
0.050000001 0.15000001 0 255 255 255
0.050000001 0.15000001 0.5 255 255 255
0.050000001 0.2 0 255 255 255
0.050000001 0.2 0.5 255 255 255
0.050000001 0.25 0 255 255 255
0.050000001 0.25 0.5 255 255 255
0.050000001 0.30000001 0 255 255 255
0.050000001 0.30000001 0.5 255 255 255
0.050000001 0.35000002 0 255 255 255
0.050000001 0.35000002 0.5 255 255 255
0.050000001 0.40000004 0 255 255 255
0.050000001 0.40000004 0.5 255 255 255
0.050000001 0.45000005 0 255 255 255
0.050000001 0.45000005 0.5 255 255 255
0.1 0 0 255 255 255
0.1 0 0.5 255 255 255
0.1 0.050000001 0 255 255 255
0.1 0.050000001 0.5 255 255 255
0.1 0.1 0 255 255 255
0.1 0.1 0.5 255 255 255
0.1 0.15000001 0 255 255 255
0.1 0.15000001 0.5 255 255 255
0.1 0.2 0 255 255 255
0.1 0.2 0.5 255 255 255
0.1 0.25 0 255 255 255
0.1 0.25 0.5 255 255 255
0.1 0.30000001 0 255 255 255
0.1 0.30000001 0.5 255 255 255
0.1 0.35000002 0 255 255 255
0.1 0.35000002 0.5 255 255 255
0.1 0.40000004 0 255 255 255
0.1 0.40000004 0.5 255 255 255
0.1 0.45000005 0 255 255 255
0.1 0.45000005 0.5 255 255 255
0.15000001 0 0 255 255 255
0.15000001 0 0.5 255 255 255
0.15000001 0.050000001 0 255 255 255
0.15000001 0.050000001 0.5 255 255 255
0.15000001 0.1 0 255 255 255
0.15000001 0.1 0.5 255 255 255
0.15000001 0.15000001 0 255 255 255
0.15000001 0.15000001 0.5 255 255 255
0.15000001 0.2 0 255 255 255
0.15000001 0.2 0.5 255 255 255
0.15000001 0.25 0 255 255 255
0.15000001 0.25 0.5 255 255 255
0.15000001 0.30000001 0 255 255 255
0.15000001 0.30000001 0.5 255 255 255
0.15000001 0.35000002 0 255 255 255
0.15000001 0.35000002 0.5 255 255 255
0.15000001 0.40000004 0 255 255 255
0.15000001 0.40000004 0.5 255 255 255
0.15000001 0.45000005 0 255 255 255
0.15000001 0.45000005 0.5 255 255 255
0.2 0 0 255 255 255
0.2 0 0.5 255 255 255
0.2 0.050000001 0 255 255 255
0.2 0.050000001 0.5 255 255 255
0.2 0.1 0 255 255 255
0.2 0.1 0.5 255 255 255
0.2 0.15000001 0 255 255 255
0.2 0.15000001 0.5 255 255 255
0.2 0.2 0 255 255 255
0.2 0.2 0.5 255 255 255
0.2 0.25 0 255 255 255
0.2 0.25 0.5 255 255 255
0.2 0.30000001 0 255 255 255
0.2 0.30000001 0.5 255 255 255
0.2 0.35000002 0 255 255 255
0.2 0.35000002 0.5 255 255 255
0.2 0.40000004 0 255 255 255
0.2 0.40000004 0.5 255 255 255
0.2 0.45000005 0 255 255 255
0.2 0.45000005 0.5 255 255 255
0.25 0 0 255 255 255
0.25 0 0.5 255 255 255
0.25 0.050000001 0 255 255 255
0.25 0.050000001 0.5 255 255 255
0.25 0.1 0 255 255 255
0.25 0.1 0.5 255 255 255
0.25 0.15000001 0 255 255 255
0.25 0.15000001 0.5 255 255 255
0.25 0.2 0 255 255 255
0.25 0.2 0.5 255 255 255
0.25 0.25 0 255 255 255
0.25 0.25 0.5 255 255 255
0.25 0.30000001 0 255 255 255
0.25 0.30000001 0.5 255 255 255
0.25 0.35000002 0 255 255 255
0.25 0.35000002 0.5 255 255 255
0.25 0.40000004 0 255 255 255
0.25 0.40000004 0.5 255 255 255
0.25 0.45000005 0 255 255 255
0.25 0.45000005 0.5 255 255 255
0.30000001 0 0 255 255 255
0.30000001 0 0.5 255 255 255
0.30000001 0.050000001 0 255 255 255
0.30000001 0.050000001 0.5 255 255 255
0.30000001 0.1 0 255 255 255
0.30000001 0.1 0.5 255 255 255
0.30000001 0.15000001 0 255 255 255
0.30000001 0.15000001 0.5 255 255 255
0.30000001 0.2 0 255 255 255
0.30000001 0.2 0.5 255 255 255
0.30000001 0.25 0 255 255 255
0.30000001 0.25 0.5 255 255 255
0.30000001 0.30000001 0 255 255 255
0.30000001 0.30000001 0.5 255 255 255
0.30000001 0.35000002 0 255 255 255
0.30000001 0.35000002 0.5 255 255 255
0.30000001 0.40000004 0 255 255 255
0.30000001 0.40000004 0.5 255 255 255
0.30000001 0.45000005 0 255 255 255
0.30000001 0.45000005 0.5 255 255 255
0.35000002 0 0 255 255 255
0.35000002 0 0.5 255 255 255
0.35000002 0.050000001 0 255 255 255
0.35000002 0.050000001 0.5 255 255 255
0.35000002 0.1 0 255 255 255
0.35000002 0.1 0.5 255 255 255
0.35000002 0.15000001 0 255 255 255
0.35000002 0.15000001 0.5 255 255 255
0.35000002 0.2 0 255 255 255
0.35000002 0.2 0.5 255 255 255
0.35000002 0.25 0 255 255 255
0.35000002 0.25 0.5 255 255 255
0.35000002 0.30000001 0 255 255 255
0.35000002 0.30000001 0.5 255 255 255
0.35000002 0.35000002 0 255 255 255
0.35000002 0.35000002 0.5 255 255 255
0.35000002 0.40000004 0 255 255 255
0.35000002 0.40000004 0.5 255 255 255
0.35000002 0.45000005 0 255 255 255
0.35000002 0.45000005 0.5 255 255 255
0.40000004 0 0 255 255 255
0.40000004 0 0.5 255 255 255
0.40000004 0.050000001 0 255 255 255
0.40000004 0.050000001 0.5 255 255 255
0.40000004 0.1 0 255 255 255
0.40000004 0.1 0.5 255 255 255
0.40000004 0.15000001 0 255 255 255
0.40000004 0.15000001 0.5 255 255 255
0.40000004 0.2 0 255 255 255
0.40000004 0.2 0.5 255 255 255
0.40000004 0.25 0 255 255 255
0.40000004 0.25 0.5 255 255 255
0.40000004 0.30000001 0 255 255 255
0.40000004 0.30000001 0.5 255 255 255
0.40000004 0.35000002 0 255 255 255
0.40000004 0.35000002 0.5 255 255 255
0.40000004 0.40000004 0 255 255 255
0.40000004 0.40000004 0.5 255 255 255
0.40000004 0.45000005 0 255 255 255
0.40000004 0.45000005 0.5 255 255 255
0.45000005 0 0 255 255 255
0.45000005 0 0.5 255 255 255
0.45000005 0.050000001 0 255 255 255
0.45000005 0.050000001 0.5 255 255 255
0.45000005 0.1 0 255 255 255
0.45000005 0.1 0.5 255 255 255
0.45000005 0.15000001 0 255 255 255
0.45000005 0.15000001 0.5 255 255 255
0.45000005 0.2 0 255 255 255
0.45000005 0.2 0.5 255 255 255
0.45000005 0.25 0 255 255 255
0.45000005 0.25 0.5 255 255 255
0.45000005 0.30000001 0 255 255 255
0.45000005 0.30000001 0.5 255 255 255
0.45000005 0.35000002 0 255 255 255
0.45000005 0.35000002 0.5 255 255 255
0.45000005 0.40000004 0 255 255 255
0.45000005 0.40000004 0.5 255 255 255
0.45000005 0.45000005 0 255 255 255
0.45000005 0.45000005 0.5 255 255 255
0 0 0 255 255 255
0.5 0 0 255 255 255
0 0.050000001 0 255 255 255
0.5 0.050000001 0 255 255 255
0 0.1 0 255 255 255
0.5 0.1 0 255 255 255
0 0.15000001 0 255 255 255
0.5 0.15000001 0 255 255 255
0 0.2 0 255 255 255
0.5 0.2 0 255 255 255
0 0.25 0 255 255 255
0.5 0.25 0 255 255 255
0 0.30000001 0 255 255 255
0.5 0.30000001 0 255 255 255
0 0.35000002 0 255 255 255
0.5 0.35000002 0 255 255 255
0 0.40000004 0 255 255 255
0.5 0.40000004 0 255 255 255
0 0.45000005 0 255 255 255
0.5 0.45000005 0 255 255 255
0 0 0.050000001 255 255 255
0.5 0 0.050000001 255 255 255
0 0.050000001 0.050000001 255 255 255
0.5 0.050000001 0.050000001 255 255 255
0 0.1 0.050000001 255 255 255
0.5 0.1 0.050000001 255 255 255
0 0.15000001 0.050000001 255 255 255
0.5 0.15000001 0.050000001 255 255 255
0 0.2 0.050000001 255 255 255
0.5 0.2 0.050000001 255 255 255
0 0.25 0.050000001 255 255 255
0.5 0.25 0.050000001 255 255 255
0 0.30000001 0.050000001 255 255 255
0.5 0.30000001 0.050000001 255 255 255
0 0.35000002 0.050000001 255 255 255
0.5 0.35000002 0.050000001 255 255 255
0 0.40000004 0.050000001 255 255 255
0.5 0.40000004 0.050000001 255 255 255
0 0.45000005 0.050000001 255 255 255
0.5 0.45000005 0.050000001 255 255 255
0 0 0.1 255 255 255
0.5 0 0.1 255 255 255
0 0.050000001 0.1 255 255 255
0.5 0.050000001 0.1 255 255 255
0 0.1 0.1 255 255 255
0.5 0.1 0.1 255 255 255
0 0.15000001 0.1 255 255 255
0.5 0.15000001 0.1 255 255 255
0 0.2 0.1 255 255 255
0.5 0.2 0.1 255 255 255
0 0.25 0.1 255 255 255
0.5 0.25 0.1 255 255 255
0 0.30000001 0.1 255 255 255
0.5 0.30000001 0.1 255 255 255
0 0.35000002 0.1 255 255 255
0.5 0.35000002 0.1 255 255 255
0 0.40000004 0.1 255 255 255
0.5 0.40000004 0.1 255 255 255
0 0.45000005 0.1 255 255 255
0.5 0.45000005 0.1 255 255 255
0 0 0.15000001 255 255 255
0.5 0 0.15000001 255 255 255
0 0.050000001 0.15000001 255 255 255
0.5 0.050000001 0.15000001 255 255 255
0 0.1 0.15000001 255 255 255
0.5 0.1 0.15000001 255 255 255
0 0.15000001 0.15000001 255 255 255
0.5 0.15000001 0.15000001 255 255 255
0 0.2 0.15000001 255 255 255
0.5 0.2 0.15000001 255 255 255
0 0.25 0.15000001 255 255 255
0.5 0.25 0.15000001 255 255 255
0 0.30000001 0.15000001 255 255 255
0.5 0.30000001 0.15000001 255 255 255
0 0.35000002 0.15000001 255 255 255
0.5 0.35000002 0.15000001 255 255 255
0 0.40000004 0.15000001 255 255 255
0.5 0.40000004 0.15000001 255 255 255
0 0.45000005 0.15000001 255 255 255
0.5 0.45000005 0.15000001 255 255 255
0 0 0.2 255 255 255
0.5 0 0.2 255 255 255
0 0.050000001 0.2 255 255 255
0.5 0.050000001 0.2 255 255 255
0 0.1 0.2 255 255 255
0.5 0.1 0.2 255 255 255
0 0.15000001 0.2 255 255 255
0.5 0.15000001 0.2 255 255 255
0 0.2 0.2 255 255 255
0.5 0.2 0.2 255 255 255
0 0.25 0.2 255 255 255
0.5 0.25 0.2 255 255 255
0 0.30000001 0.2 255 255 255
0.5 0.30000001 0.2 255 255 255
0 0.35000002 0.2 255 255 255
0.5 0.35000002 0.2 255 255 255
0 0.40000004 0.2 255 255 255
0.5 0.40000004 0.2 255 255 255
0 0.45000005 0.2 255 255 255
0.5 0.45000005 0.2 255 255 255
0 0 0.25 255 255 255
0.5 0 0.25 255 255 255
0 0.050000001 0.25 255 255 255
0.5 0.050000001 0.25 255 255 255
0 0.1 0.25 255 255 255
0.5 0.1 0.25 255 255 255
0 0.15000001 0.25 255 255 255
0.5 0.15000001 0.25 255 255 255
0 0.2 0.25 255 255 255
0.5 0.2 0.25 255 255 255
0 0.25 0.25 255 255 255
0.5 0.25 0.25 255 255 255
0 0.30000001 0.25 255 255 255
0.5 0.30000001 0.25 255 255 255
0 0.35000002 0.25 255 255 255
0.5 0.35000002 0.25 255 255 255
0 0.40000004 0.25 255 255 255
0.5 0.40000004 0.25 255 255 255
0 0.45000005 0.25 255 255 255
0.5 0.45000005 0.25 255 255 255
0 0 0.30000001 255 255 255
0.5 0 0.30000001 255 255 255
0 0.050000001 0.30000001 255 255 255
0.5 0.050000001 0.30000001 255 255 255
0 0.1 0.30000001 255 255 255
0.5 0.1 0.30000001 255 255 255
0 0.15000001 0.30000001 255 255 255
0.5 0.15000001 0.30000001 255 255 255
0 0.2 0.30000001 255 255 255
0.5 0.2 0.30000001 255 255 255
0 0.25 0.30000001 255 255 255
0.5 0.25 0.30000001 255 255 255
0 0.30000001 0.30000001 255 255 255
0.5 0.30000001 0.30000001 255 255 255
0 0.35000002 0.30000001 255 255 255
0.5 0.35000002 0.30000001 255 255 255
0 0.40000004 0.30000001 255 255 255
0.5 0.40000004 0.30000001 255 255 255
0 0.45000005 0.30000001 255 255 255
0.5 0.45000005 0.30000001 255 255 255
0 0 0.35000002 255 255 255
0.5 0 0.35000002 255 255 255
0 0.050000001 0.35000002 255 255 255
0.5 0.050000001 0.35000002 255 255 255
0 0.1 0.35000002 255 255 255
0.5 0.1 0.35000002 255 255 255
0 0.15000001 0.35000002 255 255 255
0.5 0.15000001 0.35000002 255 255 255
0 0.2 0.35000002 255 255 255
0.5 0.2 0.35000002 255 255 255
0 0.25 0.35000002 255 255 255
0.5 0.25 0.35000002 255 255 255
0 0.30000001 0.35000002 255 255 255
0.5 0.30000001 0.35000002 255 255 255
0 0.35000002 0.35000002 255 255 255
0.5 0.35000002 0.35000002 255 255 255
0 0.40000004 0.35000002 255 255 255
0.5 0.40000004 0.35000002 255 255 255
0 0.45000005 0.35000002 255 255 255
0.5 0.45000005 0.35000002 255 255 255
0 0 0.40000004 255 255 255
0.5 0 0.40000004 255 255 255
0 0.050000001 0.40000004 255 255 255
0.5 0.050000001 0.40000004 255 255 255
0 0.1 0.40000004 255 255 255
0.5 0.1 0.40000004 255 255 255
0 0.15000001 0.40000004 255 255 255
0.5 0.15000001 0.40000004 255 255 255
0 0.2 0.40000004 255 255 255
0.5 0.2 0.40000004 255 255 255
0 0.25 0.40000004 255 255 255
0.5 0.25 0.40000004 255 255 255
0 0.30000001 0.40000004 255 255 255
0.5 0.30000001 0.40000004 255 255 255
0 0.35000002 0.40000004 255 255 255
0.5 0.35000002 0.40000004 255 255 255
0 0.40000004 0.40000004 255 255 255
0.5 0.40000004 0.40000004 255 255 255
0 0.45000005 0.40000004 255 255 255
0.5 0.45000005 0.40000004 255 255 255
0 0 0.45000005 255 255 255
0.5 0 0.45000005 255 255 255
0 0.050000001 0.45000005 255 255 255
0.5 0.050000001 0.45000005 255 255 255
0 0.1 0.45000005 255 255 255
0.5 0.1 0.45000005 255 255 255
0 0.15000001 0.45000005 255 255 255
0.5 0.15000001 0.45000005 255 255 255
0 0.2 0.45000005 255 255 255
0.5 0.2 0.45000005 255 255 255
0 0.25 0.45000005 255 255 255
0.5 0.25 0.45000005 255 255 255
0 0.30000001 0.45000005 255 255 255
0.5 0.30000001 0.45000005 255 255 255
0 0.35000002 0.45000005 255 255 255
0.5 0.35000002 0.45000005 255 255 255
0 0.40000004 0.45000005 255 255 255
0.5 0.40000004 0.45000005 255 255 255
0 0.45000005 0.45000005 255 255 255
0.5 0.45000005 0.45000005 255 255 255
0 0 0 255 255 255
0 0.5 0 255 255 255
0.050000001 0 0 255 255 255
0.050000001 0.5 0 255 255 255
0.1 0 0 255 255 255
0.1 0.5 0 255 255 255
0.15000001 0 0 255 255 255
0.15000001 0.5 0 255 255 255
0.2 0 0 255 255 255
0.2 0.5 0 255 255 255
0.25 0 0 255 255 255
0.25 0.5 0 255 255 255
0.30000001 0 0 255 255 255
0.30000001 0.5 0 255 255 255
0.35000002 0 0 255 255 255
0.35000002 0.5 0 255 255 255
0.40000004 0 0 255 255 255
0.40000004 0.5 0 255 255 255
0.45000005 0 0 255 255 255
0.45000005 0.5 0 255 255 255
0 0 0.050000001 255 255 255
0 0.5 0.050000001 255 255 255
0.050000001 0 0.050000001 255 255 255
0.050000001 0.5 0.050000001 255 255 255
0.1 0 0.050000001 255 255 255
0.1 0.5 0.050000001 255 255 255
0.15000001 0 0.050000001 255 255 255
0.15000001 0.5 0.050000001 255 255 255
0.2 0 0.050000001 255 255 255
0.2 0.5 0.050000001 255 255 255
0.25 0 0.050000001 255 255 255
0.25 0.5 0.050000001 255 255 255
0.30000001 0 0.050000001 255 255 255
0.30000001 0.5 0.050000001 255 255 255
0.35000002 0 0.050000001 255 255 255
0.35000002 0.5 0.050000001 255 255 255
0.40000004 0 0.050000001 255 255 255
0.40000004 0.5 0.050000001 255 255 255
0.45000005 0 0.050000001 255 255 255
0.45000005 0.5 0.050000001 255 255 255
0 0 0.1 255 255 255
0 0.5 0.1 255 255 255
0.050000001 0 0.1 255 255 255
0.050000001 0.5 0.1 255 255 255
0.1 0 0.1 255 255 255
0.1 0.5 0.1 255 255 255
0.15000001 0 0.1 255 255 255
0.15000001 0.5 0.1 255 255 255
0.2 0 0.1 255 255 255
0.2 0.5 0.1 255 255 255
0.25 0 0.1 255 255 255
0.25 0.5 0.1 255 255 255
0.30000001 0 0.1 255 255 255
0.30000001 0.5 0.1 255 255 255
0.35000002 0 0.1 255 255 255
0.35000002 0.5 0.1 255 255 255
0.40000004 0 0.1 255 255 255
0.40000004 0.5 0.1 255 255 255
0.45000005 0 0.1 255 255 255
0.45000005 0.5 0.1 255 255 255
0 0 0.15000001 255 255 255
0 0.5 0.15000001 255 255 255
0.050000001 0 0.15000001 255 255 255
0.050000001 0.5 0.15000001 255 255 255
0.1 0 0.15000001 255 255 255
0.1 0.5 0.15000001 255 255 255
0.15000001 0 0.15000001 255 255 255
0.15000001 0.5 0.15000001 255 255 255
0.2 0 0.15000001 255 255 255
0.2 0.5 0.15000001 255 255 255
0.25 0 0.15000001 255 255 255
0.25 0.5 0.15000001 255 255 255
0.30000001 0 0.15000001 255 255 255
0.30000001 0.5 0.15000001 255 255 255
0.35000002 0 0.15000001 255 255 255
0.35000002 0.5 0.15000001 255 255 255
0.40000004 0 0.15000001 255 255 255
0.40000004 0.5 0.15000001 255 255 255
0.45000005 0 0.15000001 255 255 255
0.45000005 0.5 0.15000001 255 255 255
0 0 0.2 255 255 255
0 0.5 0.2 255 255 255
0.050000001 0 0.2 255 255 255
0.050000001 0.5 0.2 255 255 255
0.1 0 0.2 255 255 255
0.1 0.5 0.2 255 255 255
0.15000001 0 0.2 255 255 255
0.15000001 0.5 0.2 255 255 255
0.2 0 0.2 255 255 255
0.2 0.5 0.2 255 255 255
0.25 0 0.2 255 255 255
0.25 0.5 0.2 255 255 255
0.30000001 0 0.2 255 255 255
0.30000001 0.5 0.2 255 255 255
0.35000002 0 0.2 255 255 255
0.35000002 0.5 0.2 255 255 255
0.40000004 0 0.2 255 255 255
0.40000004 0.5 0.2 255 255 255
0.45000005 0 0.2 255 255 255
0.45000005 0.5 0.2 255 255 255
0 0 0.25 255 255 255
0 0.5 0.25 255 255 255
0.050000001 0 0.25 255 255 255
0.050000001 0.5 0.25 255 255 255
0.1 0 0.25 255 255 255
0.1 0.5 0.25 255 255 255
0.15000001 0 0.25 255 255 255
0.15000001 0.5 0.25 255 255 255
0.2 0 0.25 255 255 255
0.2 0.5 0.25 255 255 255
0.25 0 0.25 255 255 255
0.25 0.5 0.25 255 255 255
0.30000001 0 0.25 255 255 255
0.30000001 0.5 0.25 255 255 255
0.35000002 0 0.25 255 255 255
0.35000002 0.5 0.25 255 255 255
0.40000004 0 0.25 255 255 255
0.40000004 0.5 0.25 255 255 255
0.45000005 0 0.25 255 255 255
0.45000005 0.5 0.25 255 255 255
0 0 0.30000001 255 255 255
0 0.5 0.30000001 255 255 255
0.050000001 0 0.30000001 255 255 255
0.050000001 0.5 0.30000001 255 255 255
0.1 0 0.30000001 255 255 255
0.1 0.5 0.30000001 255 255 255
0.15000001 0 0.30000001 255 255 255
0.15000001 0.5 0.30000001 255 255 255
0.2 0 0.30000001 255 255 255
0.2 0.5 0.30000001 255 255 255
0.25 0 0.30000001 255 255 255
0.25 0.5 0.30000001 255 255 255
0.30000001 0 0.30000001 255 255 255
0.30000001 0.5 0.30000001 255 255 255
0.35000002 0 0.30000001 255 255 255
0.35000002 0.5 0.30000001 255 255 255
0.40000004 0 0.30000001 255 255 255
0.40000004 0.5 0.30000001 255 255 255
0.45000005 0 0.30000001 255 255 255
0.45000005 0.5 0.30000001 255 255 255
0 0 0.35000002 255 255 255
0 0.5 0.35000002 255 255 255
0.050000001 0 0.35000002 255 255 255
0.050000001 0.5 0.35000002 255 255 255
0.1 0 0.35000002 255 255 255
0.1 0.5 0.35000002 255 255 255
0.15000001 0 0.35000002 255 255 255
0.15000001 0.5 0.35000002 255 255 255
0.2 0 0.35000002 255 255 255
0.2 0.5 0.35000002 255 255 255
0.25 0 0.35000002 255 255 255
0.25 0.5 0.35000002 255 255 255
0.30000001 0 0.35000002 255 255 255
0.30000001 0.5 0.35000002 255 255 255
0.35000002 0 0.35000002 255 255 255
0.35000002 0.5 0.35000002 255 255 255
0.40000004 0 0.35000002 255 255 255
0.40000004 0.5 0.35000002 255 255 255
0.45000005 0 0.35000002 255 255 255
0.45000005 0.5 0.35000002 255 255 255
0 0 0.40000004 255 255 255
0 0.5 0.40000004 255 255 255
0.050000001 0 0.40000004 255 255 255
0.050000001 0.5 0.40000004 255 255 255
0.1 0 0.40000004 255 255 255
0.1 0.5 0.40000004 255 255 255
0.15000001 0 0.40000004 255 255 255
0.15000001 0.5 0.40000004 255 255 255
0.2 0 0.40000004 255 255 255
0.2 0.5 0.40000004 255 255 255
0.25 0 0.40000004 255 255 255
0.25 0.5 0.40000004 255 255 255
0.30000001 0 0.40000004 255 255 255
0.30000001 0.5 0.40000004 255 255 255
0.35000002 0 0.40000004 255 255 255
0.35000002 0.5 0.40000004 255 255 255
0.40000004 0 0.40000004 255 255 255
0.40000004 0.5 0.40000004 255 255 255
0.45000005 0 0.40000004 255 255 255
0.45000005 0.5 0.40000004 255 255 255
0 0 0.45000005 255 255 255
0 0.5 0.45000005 255 255 255
0.050000001 0 0.45000005 255 255 255
0.050000001 0.5 0.45000005 255 255 255
0.1 0 0.45000005 255 255 255
0.1 0.5 0.45000005 255 255 255
0.15000001 0 0.45000005 255 255 255
0.15000001 0.5 0.45000005 255 255 255
0.2 0 0.45000005 255 255 255
0.2 0.5 0.45000005 255 255 255
0.25 0 0.45000005 255 255 255
0.25 0.5 0.45000005 255 255 255
0.30000001 0 0.45000005 255 255 255
0.30000001 0.5 0.45000005 255 255 255
0.35000002 0 0.45000005 255 255 255
0.35000002 0.5 0.45000005 255 255 255
0.40000004 0 0.45000005 255 255 255
0.40000004 0.5 0.45000005 255 255 255
0.45000005 0 0.45000005 255 255 255
0.45000005 0.5 0.45000005 255 255 255
0 0 0 1 0 0 0 1 0 0 0 1 0 0 0 0 0 600 1 0 0
